<?xml version="1.0" encoding="UTF-8" standalone="no"?>
<!-- Created with Inkscape (http://www.inkscape.org/) -->

<svg
   version="1.1"
   id="svg69"
   width="3400"
   height="809"
   viewBox="0 0 3400 809"
   sodipodi:docname="logo_transparent_background.svg"
   inkscape:version="1.1.2 (0a00cf5339, 2022-02-04)"
   xmlns:inkscape="http://www.inkscape.org/namespaces/inkscape"
   xmlns:sodipodi="http://sodipodi.sourceforge.net/DTD/sodipodi-0.dtd"
   xmlns="http://www.w3.org/2000/svg"
   xmlns:svg="http://www.w3.org/2000/svg">
  <defs
     id="defs73" />
  <sodipodi:namedview
     id="namedview71"
     pagecolor="#ffffff"
     bordercolor="#666666"
     borderopacity="1.0"
     inkscape:pageshadow="2"
     inkscape:pageopacity="0.0"
     inkscape:pagecheckerboard="0"
     showgrid="false"
     inkscape:zoom="0.20575863"
     inkscape:cx="828.6408"
     inkscape:cy="935.5622"
     inkscape:window-width="3440"
     inkscape:window-height="1352"
     inkscape:window-x="0"
     inkscape:window-y="0"
     inkscape:window-maximized="1"
     inkscape:current-layer="g75" />
  <g
     inkscape:groupmode="layer"
     inkscape:label="Image"
     id="g75">
    <g
       id="g213"
       transform="translate(0.35106587,-13.492015)">
      <path
         style="fill:#d1d1d1"
         d="m 227.97225,636.67592 c -14.43774,-3.20054 -26.20399,-15.46533 -28.88567,-30.10958 -1.50353,-8.21058 -1.50094,-156.95755 0.003,-165.09247 1.44949,-7.841 4.81079,-14.21623 10.48949,-19.89492 18.32899,-18.329 49.16613,-13.22412 60.97071,10.09328 L 273.5,437.5 v 86.5 86.5 l -3.41738,6.30263 c -8.45393,15.5915 -25.38372,23.58123 -42.11037,19.87329 z M 652,636.64396 c -11.8742,-2.71453 -20.95852,-10.11407 -26.3256,-21.44325 L 622.5,608.5 V 524 439.5 l 3.1744,-6.70071 c 14.10577,-29.77534 55.19315,-29.78565 69.14554,-0.0174 L 697.5,438.5 v 85.5 85.5 l -2.60111,5.54563 C 687.08312,631.70902 669.38665,640.61868 652,636.64396 Z m 279.7315,0.35985 c -11.12319,-1.96713 -21.67215,-10.07525 -26.8852,-20.66446 -4.18912,-8.5093 -5.06525,-19.8712 -2.1853,-28.33935 1.02878,-3.025 30.21342,-54.775 64.85476,-115 47.49674,-82.57447 64.10534,-110.63277 67.54334,-114.10673 6.5199,-6.588 13.8573,-9.25814 25.4409,-9.25814 11.4672,0 18.3025,2.50375 25.9725,9.51377 7.2566,6.63208 11.4041,14.991 12.2104,24.60902 0.9546,11.38628 -1.2838,16.62432 -22.774,53.2924 C 1065.509,454.79538 1057,469.69341 1057,470.15704 c 0,0.46363 17.6933,0.84296 39.3185,0.84296 32.968,0 40.1802,0.25589 44.6534,1.5843 28.1966,8.37348 36.3104,44.33392 14.5006,64.2668 -3.0861,2.82058 -7.989,6.02122 -11.2258,7.3283 l -5.7467,2.3206 -63.1331,0.28517 -63.133,0.28518 -20.36697,36.14083 C 974.26971,614.43721 970.61606,620.25965 965,626.02624 c -4.84354,4.97337 -7.9061,7.19633 -12.01758,8.72299 -6.7622,2.51093 -14.91214,3.37558 -21.25092,2.25458 z M 1350,636.6095 c -10.3605,-2.30358 -18.755,-8.59908 -25.4808,-19.1095 -1.7598,-2.75 -49.5053,-85.325 -106.1011,-183.5 -69.8724,-121.20549 -103.664,-180.74684 -105.277,-185.5 -3.0818,-9.08074 -2.6262,-19.57626 1.2136,-27.96365 3.1333,-6.84406 11.4521,-15.32326 18.0585,-18.40681 16.8394,-7.85974 38.0207,-2.53497 47.0511,11.82816 6.2432,9.93006 211.2398,366.33954 213.4129,371.0423 2.1224,4.59287 2.5433,6.9844 2.5522,14.5 0.01,8.01687 -0.3328,9.73196 -3.1337,15.70071 -5.4922,11.70351 -15.3562,19.41509 -27.7696,21.70983 -6.9744,1.28929 -7.4145,1.28017 -14.5261,-0.30104 z m 1005,0.0378 c -14.2524,-3.24962 -24.9544,-13.50099 -28.4862,-27.28675 -1.3707,-5.35051 -1.5235,-19.44337 -1.2848,-118.46674 L 2325.5,378.5 l 2.8693,-6.2116 c 3.4146,-7.39186 12.1646,-16.23198 19.3135,-19.51225 3.9763,-1.82453 6.65,-2.2161 15.3172,-2.24325 9.4588,-0.0296 11.0528,0.23878 16.0749,2.70687 7.6052,3.73758 14.6055,10.89891 18.3385,18.76023 l 3.0866,6.5 V 494 609.5 l -2.2691,4.92034 c -7.8301,16.97867 -25.7777,26.20634 -43.2309,22.22693 z m 382.0453,0.31416 c -10.9983,-2.28877 -22.778,-11.66016 -27.2898,-21.71067 -3.0593,-6.81506 -3.6161,-20.89695 -1.1029,-27.89349 2.5478,-7.09265 125.9734,-221.5561 130.492,-226.74189 10.0168,-11.49598 29.5037,-14.75288 44.7011,-7.47105 6.9751,3.34214 15.5068,12.52003 18.1531,19.52804 3.1135,8.24552 3.6148,15.70521 1.5357,22.8568 -2.3155,7.96506 -4.1993,11.51977 -23.6742,44.67266 -9.2732,15.78601 -16.8603,29.15473 -16.8603,29.70827 0,0.65427 14.434,1.10852 41.25,1.29817 l 41.25,0.29173 6.2224,2.87417 c 7.6307,3.52468 15.3184,11.33405 19.0714,19.37319 2.3196,4.9687 2.687,7.05011 2.6959,15.27367 0.01,8.75619 -0.2541,10.05812 -3.2812,16.20699 -3.9925,8.10993 -12.1029,15.76313 -20.1636,19.02687 -5.4942,2.22457 -6.1244,2.24968 -68.8848,2.74511 l -63.3399,0.5 -19.5111,34.5 c -21.2629,37.59778 -25.0555,43.3261 -32.1145,48.50568 -7.9772,5.85331 -19.6362,8.43544 -29.1493,6.45575 z m 419.2984,0.051 c -9.7212,-2.04909 -18.2085,-8.15805 -24.6769,-17.7619 -4.4347,-6.58423 -204.6132,-353.27659 -209.1864,-362.29319 -6.6125,-13.03739 -7.1705,-26.05072 -1.6019,-37.36196 3.5368,-7.18428 10.4872,-14.14169 17.5367,-17.55429 13.994,-6.77437 33.9555,-3.40926 43.1699,7.27758 4.2149,4.88841 213.4757,367.29741 217.2133,376.18138 1.9332,4.59517 2.5277,7.75604 2.539,13.5 0.019,9.56406 -1.3785,14.3361 -6.4002,21.85616 -8.2525,12.35823 -24.4477,19.13795 -38.5935,16.15622 z M 1693,632.39879 c -39.3496,-6.64377 -78.4436,-18.32727 -90.3029,-26.98764 -9.8603,-7.20059 -16.6129,-22.37537 -15.3468,-34.48839 2.0373,-19.49166 17.8439,-34.01733 37.0927,-34.08676 6.0592,-0.0219 9.602,0.84235 25.057,6.11227 9.9,3.37575 26.9466,8.34449 37.8814,11.04165 10.9347,2.69715 22.3248,6.09941 25.3113,7.56057 7.2372,3.5408 15.7623,12.01733 18.8338,18.72645 10.4603,22.8483 -5.6053,49.82432 -31.0265,52.09695 -2.75,0.24585 -6.125,0.25705 -7.5,0.0249 z m 143.9089,-6.29517 c -26.9741,-8.63025 -35.3738,-42.69136 -15.4429,-62.62222 5.232,-5.23206 9.7363,-7.6261 21.71,-11.53891 19.201,-6.27459 30.359,-14.51664 36.1214,-26.68159 2.9392,-6.20489 3.2026,-7.58329 3.2026,-16.7609 0,-9.19381 -0.2602,-10.54942 -3.2279,-16.81505 -8.1861,-17.28337 -27.6814,-27.62586 -61.7721,-32.77094 -9.0291,-1.3627 -22.6218,-2.25158 -44.5,-2.91002 -47.1427,-1.41878 -69.168,-4.63776 -96.8483,-14.15431 -55.8139,-19.18898 -84.4674,-52.22776 -89.2826,-102.94708 -3.182,-33.5163 6.8957,-63.47397 29.4708,-87.60685 16.5062,-17.64515 45.0901,-34.50002 70.1384,-41.35795 14.0182,-3.83804 26.1974,-0.99822 36.3177,8.46818 15.4626,14.46345 16.0856,38.09893 1.3816,52.42102 -4.9892,4.85966 -15.4073,10.91237 -22.6776,13.17527 -8.5275,2.65422 -21.8321,10.37254 -27.4669,15.93427 -11.5032,11.35408 -14.8052,27.10772 -8.9176,42.54588 7.0157,18.39613 29.0892,30.1677 65.7837,35.08181 6.3805,0.85446 25.3258,1.96369 42.1008,2.46495 40.1788,1.2006 56.3368,3.10202 80.7855,9.5066 37.6108,9.8525 67.1447,27.57013 84.1665,50.49208 12.8706,17.33185 19.4998,37.15426 20.7535,62.05642 2.7249,54.12632 -27.2051,96.00508 -85.3722,119.45488 -9.136,3.68313 -20.9944,6.49281 -27.0411,6.40706 -2.0857,-0.0296 -6.3082,-0.85875 -9.3833,-1.8426 z M 436.16532,484.44307 c -2.38407,-0.8665 -5.72503,-2.42098 -7.42435,-3.4544 C 427.04165,479.95525 376.32083,430.08829 316.02805,370.1732 197.14914,252.039 201.4691,256.7297 199.01475,243.11758 193.472,212.37671 225.91296,188.35838 253.5,202.7783 c 3.75005,1.96017 28.68716,26.24615 99.75248,97.14782 l 94.75247,94.53428 94.74753,-94.59668 c 102.28344,-102.1206 98.24457,-98.46324 111.41413,-100.89004 15.96369,-2.9417 32.61629,5.71475 40.05282,20.82047 3.04586,6.18703 3.28057,7.38075 3.28057,16.68482 0,17.60923 9.59849,6.6617 -116.37458,132.73058 C 456.12004,494.31 466.48863,485.13272 449.5,485.71177 c -6.3503,0.21644 -10.27618,-0.15707 -13.33468,-1.2687 z M 1898,298.90775 c -3.025,-0.44949 -10.9,-2.81931 -17.5,-5.26628 -6.6,-2.44696 -18.75,-6.32355 -27,-8.61464 -18.8612,-5.23791 -21.8694,-6.39359 -27.6087,-10.60663 -23.2809,-17.08973 -19.5303,-52.33509 6.8845,-64.69607 5.8349,-2.73047 7.6895,-3.11238 14.7007,-3.02724 13.3737,0.1624 48.1195,10.32453 68.5,20.03422 8.8094,4.19696 17.3983,12.26779 21.038,19.76889 2.011,4.14449 2.4295,6.53991 2.446,14 0.023,10.46822 -2.0952,16.90595 -8.2117,24.95544 -8.597,11.31404 -19.084,15.55705 -33.2488,13.45231 z m 269.8925,-27.25653 c -6.801,-2.80424 -10.485,-5.35086 -15.0496,-10.40331 -9.9859,-11.05323 -12.1372,-27.95034 -5.33,-41.86373 3.4007,-6.9508 12.7623,-15.54634 20.2025,-18.54939 L 2173.5,198.5 2359,198.21298 c 130.585,-0.20206 187.3913,0.0358 191.8887,0.80341 8.2416,1.40673 14.6978,4.72798 20.5324,10.56256 18.3289,18.32899 13.2241,49.16613 -10.0933,60.97071 L 2555.5,273.5 l -191,0.23168 -191,0.23169 z"
         id="path227" />
      <path
         style="fill:#b0b0b0"
         d="M 227.74592,635.9779 C 217.18619,633.31034 207.1066,624.80273 202.29951,614.5 L 199.5,608.5 V 524 439.5 l 2.80075,-6 c 6.94757,-14.88367 21.34639,-23.49035 37.09067,-22.1704 13.70576,1.14904 26.64259,10.68186 31.78798,23.42374 L 273.5,440.5 v 83.5 83.5 l -2.3206,5.74666 c -3.17346,7.85866 -10.76392,15.93118 -18.61332,19.79542 -6.94159,3.41734 -17.82025,4.7041 -24.82016,2.93582 z m 422.49767,-0.46052 C 638.39899,632.18315 628.6162,622.74229 624.98813,611.14466 623.07279,605.02202 623,601.83074 623,523.98376 c 0,-90.67915 -0.24463,-87.43346 7.3721,-97.80953 16.52914,-22.5172 51.08009,-18.96977 63.75365,6.54573 L 696.5,437.5 v 86.5 86.5 l -2.37425,4.78004 c -8.17937,16.46742 -26.78807,25.04928 -43.88216,20.23734 z m 278.68576,0.17955 c -10.06494,-2.85539 -19.18444,-10.61154 -24.08055,-20.48058 -2.02428,-4.08031 -2.34043,-6.19979 -2.34431,-15.71635 -0.004,-10.20247 0.20528,-11.39877 2.8887,-16.5 8.32878,-15.83312 125.35411,-218.12392 128.25371,-221.70021 2.1774,-2.68556 5.8225,-5.39016 10.1082,-7.5 6.2312,-3.06761 7.4079,-3.29979 16.7239,-3.29979 8.7614,0 10.7343,0.3344 15.6961,2.66041 7.584,3.55524 13.816,9.49289 17.9345,17.0875 3.1772,5.85896 3.3904,6.84944 3.3904,15.75209 0,12.4529 -0.685,14.0034 -22.9284,51.89754 -9.8137,16.71864 -17.8944,31.11864 -17.9573,32 -0.1026,1.43898 4.1704,1.65347 41.8857,2.10246 l 42,0.5 5.6095,2.7548 c 6.6982,3.28946 15.1338,11.8633 18.1964,18.49444 1.8202,3.94107 2.1928,6.54031 2.1862,15.25076 -0.01,9.01881 -0.3417,11.1743 -2.3742,15.28004 -3.743,7.56081 -10.4247,14.25327 -17.9105,17.93939 l -6.6622,3.28057 -63.9066,0.5 -63.9066,0.5 -20.61602,36.30982 c -22.79934,40.15526 -26.54257,45.30567 -36.48451,50.20007 -7.4936,3.68909 -18.21794,4.81027 -25.70212,2.68704 z m 418.69465,-0.33359 c -6.741,-2.07005 -11.3577,-5.18943 -17.1639,-11.59709 -3.6205,-3.99558 -32.9845,-54.10347 -108.728,-185.53825 -57.0723,-99.0354 -104.9973,-182.68868 -106.5,-185.89618 -2.4061,-5.13595 -2.7321,-7.02689 -2.7321,-15.8472 0,-9.30423 0.2338,-10.49074 3.293,-16.71007 3.9478,-8.0259 11.1761,-14.80279 19.207,-18.00741 4.1994,-1.67573 7.6333,-2.20328 14.5214,-2.23093 8.2013,-0.0329 9.6233,0.26011 15.6424,3.22347 3.6415,1.79283 8.1366,4.94283 9.989,7 5.4403,6.04172 216.39,372.85976 218.3996,379.77267 2.0217,6.95418 1.5325,17.75599 -1.0854,23.96765 -7.4165,17.5974 -27.2482,27.26645 -44.843,21.86334 z m 1004.0992,-0.31718 c -7.2898,-2.32987 -15.4972,-8.47979 -19.6167,-14.69902 -6.4508,-9.73901 -6.1668,-3.50451 -5.8732,-128.91052 L 2326.5,377.5 l 2.9503,-5.82777 c 3.8673,-7.63893 12.7185,-15.84338 20.0526,-18.58744 7.6174,-2.85002 19.3768,-2.85002 26.9942,0 7.3861,2.7635 16.5346,11.24348 20.2148,18.73764 l 2.7881,5.67757 0.2667,113.93662 c 0.2948,125.9287 0.601,119.43618 -6.0937,129.19463 -9.2098,13.4246 -26.4802,19.35908 -41.9498,14.41491 z m 383.2061,0.65077 c -10.8198,-3.06954 -21.1079,-12.32395 -25.008,-22.4953 -2.5699,-6.7021 -3.0513,-18.50729 -1.0073,-24.70163 1.818,-5.50939 126.7411,-222.73706 130.8562,-227.54466 1.8869,-2.20438 6.1931,-5.28884 10.0007,-7.16334 6.2133,-3.0588 7.3969,-3.292 16.7081,-3.292 8.7303,0 10.7294,0.33618 15.521,2.61007 12.4593,5.91268 20.7096,17.40258 21.7434,30.28144 0.9769,12.17072 -0.4817,15.50444 -25.1536,57.49062 -9.1728,15.61017 -16.7706,28.88517 -16.8838,29.5 -0.148,0.80317 11.7585,1.25863 42.294,1.61787 41.0945,0.48347 42.6571,0.57256 47.2508,2.69411 6.5913,3.04416 14.8525,11.1751 18.3293,18.04024 2.6487,5.23018 2.9199,6.69633 2.9199,15.78668 0,9.28487 -0.2387,10.50598 -3.2499,16.62258 -3.853,7.82646 -10.1293,13.97121 -18.075,17.69598 L 2945.5,545.5 l -63.9967,0.5 -63.9966,0.5 -19.1174,33.79396 c -10.5146,18.58667 -20.8317,36.28309 -22.927,39.32538 -4.5268,6.57266 -10.3533,11.5602 -16.8746,14.44491 -5.9284,2.6224 -17.3832,3.41291 -23.6584,1.63268 z m 417.7663,-0.59409 c -6.2111,-2.05461 -12.3908,-6.36979 -17.5168,-12.23177 C 3130.6641,617.70824 2923.2626,257.85131 2920.2767,250 c -2.1396,-5.62597 -2.415,-7.7102 -2.0476,-15.5 0.3156,-6.69055 1.014,-10.22658 2.7219,-13.78004 3.5957,-7.481 10.3086,-14.23013 17.8432,-17.93939 6.1195,-3.01265 7.443,-3.28057 16.2058,-3.28057 8.7695,0 10.0835,0.26653 16.2291,3.292 3.8382,1.88955 8.0894,4.94122 9.9789,7.16326 3.2436,3.81438 208.9868,359.8605 215.792,373.43595 3.2386,6.46052 3.4982,7.659 3.4753,16.04541 -0.021,7.77042 -0.4237,9.93424 -2.8213,15.16796 -7.8004,17.02712 -27.8362,26.16224 -44.9584,20.49826 z M 1691,631.37992 c -36.1632,-6.81962 -62.3612,-14.08272 -80.5591,-22.33405 -8.101,-3.67316 -14.7348,-10.33476 -18.7665,-18.84516 -2.8344,-5.98297 -3.1744,-7.66474 -3.1744,-15.70071 0,-7.99722 0.3451,-9.72423 3.0974,-15.5 4.0348,-8.46703 9.9845,-14.43961 18.244,-18.31417 5.5868,-2.6208 7.8658,-3.12595 14.1586,-3.13831 6.586,-0.0129 9.6936,0.73356 25.5,6.12558 9.9,3.37717 27.1454,8.42212 38.3231,11.211 12.2859,3.06535 22.3439,6.16719 25.4328,7.84329 6.868,3.72673 13.9309,10.77787 17.3911,17.36201 2.5438,4.84046 2.8439,6.41167 2.8482,14.9106 0,8.2275 -0.3553,10.26829 -2.6834,15.23579 -3.4065,7.26848 -11.2627,15.16568 -18.2856,18.38083 -5.3916,2.46839 -15.9219,3.82015 -21.5262,2.7633 z m 145.8632,-5.87906 c -10.898,-3.51461 -20.3997,-13.2059 -23.8797,-24.3562 -2.483,-7.95574 -2.5125,-14.26685 -0.1029,-22.00899 4.1048,-13.18861 12.9427,-20.88631 30.561,-26.61817 24.7654,-8.05704 36.6821,-19.27095 39.6635,-37.32412 3.9392,-23.85241 -11.5296,-43.19213 -41.6552,-52.07922 -16.8045,-4.95735 -45.2637,-8.0571 -74.4499,-8.10901 -71.0991,-0.12645 -130.7903,-22.11025 -158.0425,-58.20577 -15.6042,-20.66775 -23.1208,-46.99444 -21.6417,-75.79938 2.2473,-43.76603 28.0439,-78.77763 74.057,-100.51163 18.505,-8.74074 25.7195,-10.92825 36.1482,-10.96048 8.1865,-0.0253 9.6317,0.27275 15.6226,3.22204 7.8265,3.85296 13.9712,10.12929 17.696,18.07492 2.2973,4.90053 2.6597,6.97184 2.6556,15.17515 0,8.46072 -0.3105,10.08135 -2.7993,14.81408 -5.1441,9.78202 -14.5463,16.83703 -30.3576,22.77891 -17.9835,6.75821 -29.1565,15.22658 -34.5468,26.18402 -3.1441,6.39137 -3.2915,7.20669 -3.2915,18.20699 0,10.6525 0.2151,11.95439 2.8683,17.36256 8.5094,17.34494 31.1515,28.53444 67.0942,33.15717 6.5793,0.8462 26.1543,1.96886 43.5,2.4948 36.8143,1.11625 52.7745,2.93148 75.1157,8.54331 50.1202,12.58957 85.5758,39.00711 98.971,73.74205 6.1673,15.99233 7.3766,23.28443 7.4155,44.71611 0.031,17.37248 -0.2222,20.47462 -2.3253,28.43296 -9.1408,34.59121 -32.5738,60.96548 -70.1514,78.95649 -21.6625,10.37138 -37.1976,13.63544 -48.1248,10.11141 z M 442.12404,484.94395 c -11.37363,-1.59981 -9.03838,0.54329 -125.01232,-114.7257 -59.91919,-59.55496 -110.31604,-110.41993 -111.99301,-113.03326 -9.46563,-14.7509 -7.35574,-34.23341 5.07518,-46.86369 7.4778,-7.59772 14.98625,-10.73523 25.80611,-10.78343 7.30098,-0.0325 9.4169,0.37529 15,2.8911 6.11201,2.75414 12.18584,8.60223 101.7548,97.97304 l 95.25481,95.04407 95.24519,-95.05156 C 633.1654,210.66671 638.86406,205.18072 645,202.4462 c 5.58949,-2.49098 7.76366,-2.90022 15.52103,-2.92148 8.20029,-0.0225 9.6273,0.27375 15.68482,3.25585 7.4942,3.68939 14.17983,10.38891 17.9022,17.93939 2.01731,4.09193 2.3591,6.29157 2.37425,15.28004 0.031,18.37551 10.1095,6.82722 -115.77609,132.65982 -116.5073,116.45825 -114.34186,114.44881 -124.87357,115.87812 -2.38295,0.3234 -5.23264,0.7172 -6.33264,0.8751 -1.1,0.1579 -4.41918,-0.0532 -7.37596,-0.46909 z M 1895,297.5794 c -3.025,-0.75415 -11.1291,-3.39475 -18.0092,-5.868 -6.88,-2.47324 -19.4725,-6.43669 -27.9833,-8.80767 -18.1444,-5.05473 -24.9486,-8.9731 -31.1015,-17.91042 -10.7002,-15.54244 -8.5989,-34.60525 5.2852,-47.94633 5.0694,-4.87113 10.5633,-7.68158 18.1109,-9.2647 4.5844,-0.96158 7.2185,-0.87526 14.917,0.48882 17.0154,3.0149 47.5672,13.00862 61.6973,20.18163 2.979,1.51226 7.8386,5.1718 10.7991,8.13231 11.4267,11.42673 13.6621,25.55841 6.4543,40.80202 -7.9772,16.87056 -23.0675,24.45606 -40.1698,20.19234 z m 279.7315,-24.60777 c -18.5004,-3.14695 -32.3246,-21.45565 -30.364,-40.21401 1.3433,-12.85169 10.0387,-24.81847 22.1325,-30.45915 l 6,-2.79847 h 190.5 190.5 l 6,2.80075 c 14.8837,6.94757 23.4903,21.34639 22.1704,37.09067 -1.149,13.70576 -10.6819,26.64259 -23.4237,31.78798 L 2552.5,273.5 2366,273.64138 c -102.575,0.0778 -188.6458,-0.22363 -191.2685,-0.66975 z"
         id="path225" />
      <path
         style="fill:#8f8f8f"
         d="M 224.84418,634.60632 C 215.10453,631.12723 208.05077,624.8334 202.87058,615 L 200.5,610.5 V 524 437.5 l 2.78504,-5.2859 c 3.96315,-7.52191 8.73582,-12.40484 15.94662,-16.315 5.99645,-3.25166 6.72379,-3.3991 16.76834,-3.3991 9.26117,0 11.14891,0.30905 16,2.61941 6.90967,3.29078 14.25312,10.66099 17.78246,17.84726 L 272.5,438.5 v 85.5 85.5 l -2.78855,5.67798 c -3.68069,7.49454 -12.82839,15.97378 -20.21438,18.73723 -6.49407,2.42974 -18.81841,2.77524 -24.65289,0.69111 z m 424,0 c -14.2625,-5.09469 -22.88074,-15.74947 -24.81908,-30.68399 -1.18036,-9.09432 -1.27255,-149.53107 -0.10478,-159.60129 1.05392,-9.08846 4.1292,-15.47244 10.5302,-21.85965 7.28168,-7.26599 13.03571,-9.71347 24.04948,-10.22946 7.4662,-0.34978 9.97169,-0.0555 14.70163,1.72697 6.25103,2.35564 14.65721,9.27313 18.32034,15.07591 C 697.07236,437.82719 697,436.57274 697,524 c 0,87.42726 0.0724,86.17281 -5.47803,94.96519 -3.61397,5.7249 -12.07271,12.72302 -18.10785,14.98106 -6.41069,2.39854 -18.77334,2.73067 -24.56994,0.66007 z m 276.37486,-0.73986 c -7.56416,-2.9067 -16.19771,-11.23102 -19.79338,-19.08443 -2.47993,-5.41651 -2.87962,-7.52203 -2.90094,-15.28203 -0.0229,-8.35154 0.23886,-9.54038 3.6336,-16.5 6.45046,-13.22421 124.49318,-217.34707 128.10348,-221.52028 7.2125,-8.33695 20.0679,-12.44282 32.6259,-10.4204 8.0623,1.29839 13.1238,3.89254 19.6648,10.07874 7.5256,7.11739 10.8769,14.9429 10.8613,25.36194 -0.016,10.79396 -1.8674,14.83272 -24.2476,52.89717 -9.9914,16.99345 -18.1662,31.28095 -18.1662,31.75 0,0.46906 17.9526,0.85283 39.8947,0.85283 37.1449,0 40.3327,0.13817 46.25,2.0046 26.4071,8.32937 34.3727,41.97533 14.4078,60.85734 -6.5397,6.18497 -11.5969,8.77735 -19.6817,10.08922 -3.8662,0.62734 -29.5762,1.0367 -65.3974,1.04129 l -59.0266,0.008 -17.91923,31.75 c -9.85559,17.4625 -19.65908,34.5429 -21.78554,37.95644 -5.14136,8.25326 -13.35152,15.62961 -20.28288,18.22296 -7.41351,2.77375 -18.93003,2.74612 -26.24011,-0.0629 z M 1348,635.06487 c -5.6267,-1.71777 -11.7308,-5.62617 -16.3237,-10.45187 -3.7297,-3.91889 -29.3711,-47.61784 -109.7926,-187.113 C 1164.1742,337.4 1115.9874,253.025 1114.802,250 c -3.2908,-8.39745 -3.1172,-20.65351 0.3997,-28.21807 3.5102,-7.55018 10.7195,-15.10457 17.6738,-18.51976 5.1068,-2.50794 6.6369,-2.76217 16.6245,-2.76217 10.025,0 11.4545,0.23974 16.1277,2.70489 2.8203,1.48769 7.0274,4.86269 9.3491,7.5 4.4694,5.07684 215.1566,369.71008 217.7144,376.79511 1.9887,5.50861 1.9396,18.10408 -0.094,24.12445 -3.3593,9.94529 -12.2307,18.89172 -22.3944,22.58396 -4.9104,1.78382 -17.5661,2.27201 -22.2028,0.85646 z m 1003.3963,-0.42675 c -9.4055,-3.07288 -18.7636,-11.98476 -22.6383,-21.55877 L 2326.5,607.5 2326.2246,497.11343 c -0.171,-68.51083 0.094,-112.38287 0.6973,-115.64892 2.1759,-11.7706 9.7408,-21.70398 20.5781,-27.02085 5.3791,-2.63904 6.9831,-2.94113 15.5,-2.91923 7.6819,0.0197 10.4417,0.45402 14.4203,2.26911 10.6935,4.87843 18.2281,13.7691 21.07,24.86204 1.376,5.37134 1.5275,19.27603 1.2848,117.96674 L 2399.5,608.5 l -2.6801,5.71807 c -3.5404,7.55384 -10.7564,15.11452 -17.6394,18.48203 -4.5956,2.24843 -7.1507,2.77286 -14.6245,3.00159 -5.608,0.17163 -10.6185,-0.23332 -13.1597,-1.06357 z m 379.4466,-1.01245 c -10.117,-4.16134 -18.4245,-13.11023 -21.3661,-23.01588 -1.9898,-6.70036 -1.8199,-16.97154 0.3823,-23.10979 2.7797,-7.74758 126.7102,-222.41172 130.9579,-226.8364 13.4169,-13.97586 38.8096,-13.39191 52.4648,1.20653 5.8056,6.2067 8.3269,11.21887 9.7477,19.37809 2.1349,12.25933 0.3404,16.53419 -25.1677,59.95361 -9.274,15.78601 -16.8618,29.17351 -16.8618,29.75 0,0.71311 12.5596,1.04817 39.2899,1.04817 44.0635,0 47.2764,0.37692 56.4057,6.61724 6.1239,4.18588 9.4596,8.3075 13.0687,16.1473 2.199,4.77689 2.6423,7.17171 2.6523,14.32903 0.011,7.68133 -0.3318,9.29187 -3.2264,15.1717 -4.0186,8.16292 -11.9528,15.68744 -19.9435,18.91384 l -5.7467,2.3203 -63.159,0.29845 -63.1591,0.29844 -20.3409,36.13079 c -17.5963,31.25547 -21.2181,37.03098 -26.841,42.80208 -4.9539,5.08443 -7.8766,7.18264 -12.2875,8.82106 -8.1184,3.01555 -19.2177,2.92279 -26.8696,-0.22456 z m 420.4211,0.62638 c -6.5207,-2.69701 -12.663,-7.53348 -17.0296,-13.40919 -6.08,-8.18137 -211.2659,-364.57609 -213.5041,-370.84286 -2.8507,-7.98179 -3.3178,-16.46728 -1.2905,-23.44108 2.1844,-7.51374 5.1472,-12.10316 11.5023,-17.81695 C 2937.8297,202.54945 2944.8457,200 2955,200 c 11.0186,0 17.9639,2.66916 24.5,9.41564 3.9845,4.1127 26.5089,42.50241 110.8987,189.01116 58.2443,101.11763 106.7769,186.1504 107.8502,188.96172 2.9119,7.62693 2.1401,21.12236 -1.6269,28.44898 -3.497,6.80134 -9.9756,13.28206 -16.7845,16.79001 -4.5116,2.3244 -6.8074,2.79837 -14.8375,3.06324 -7.3191,0.24142 -10.4725,-0.0889 -13.736,-1.4387 z M 1676,628.07578 c -27.4326,-5.68928 -51.6898,-13.00751 -66.4252,-20.04009 -7.7665,-3.70659 -13.7025,-9.96221 -17.8928,-18.85608 -2.7105,-5.75306 -3.1471,-7.78931 -3.1471,-14.67961 0,-6.87609 0.4385,-8.93051 3.1208,-14.62338 6.4116,-13.6079 17.202,-21.07439 31.3958,-21.72448 7.1285,-0.32649 8.6957,0.0294 25.5217,5.79496 9.8597,3.37855 27.1286,8.41028 38.3754,11.18163 22.3981,5.51922 27.1672,7.47262 34.634,14.18594 16.0858,14.46249 15.9555,37.85338 -0.2935,52.70409 -10.5159,9.61096 -21.2382,11.04497 -45.2891,6.05702 z m 163.3835,-2.48756 c -10.2337,-2.48356 -20.4057,-10.90728 -24.649,-20.41255 -2.9287,-6.56029 -3.5501,-19.38585 -1.2762,-26.33792 3.9765,-12.15752 12.8421,-20.36669 26.3717,-24.41914 20.7472,-6.2143 34.1858,-15.60833 40.4023,-28.24241 3.0921,-6.28419 3.2674,-7.23333 3.263,-17.65867 0,-9.79836 -0.2935,-11.62615 -2.6144,-16.51753 -7.1486,-15.06548 -20.3198,-24.17186 -44.1262,-30.50817 -15.2503,-4.05904 -28.5847,-5.4831 -60.7547,-6.48835 -38.9989,-1.21865 -56.3784,-3.01168 -78,-8.04721 -21.5537,-5.01972 -46.0941,-15.2241 -62.0447,-25.79936 -9.5942,-6.361 -20.8049,-16.7276 -27.1612,-25.11618 -6.8758,-9.07412 -14.3393,-24.66079 -17.4971,-36.54073 -2.4497,-9.2157 -2.6636,-11.60781 -2.7276,-30.5 -0.076,-22.46535 0.7889,-28.05371 6.6558,-43 12.416,-31.63053 44.6563,-59.11769 85.7748,-73.1291 17.8945,-6.09767 31.2083,-3.68797 41.8619,7.57664 6.0839,6.43278 8.6518,11.35596 10.1059,19.37507 2.1059,11.61324 -2.039,23.54916 -10.8803,31.33159 -4.4602,3.92605 -14.2765,9.06916 -27.5692,14.44448 -9.0144,3.64528 -20.155,11.12142 -24.3483,16.33941 -10.519,13.08944 -11.9903,32.27412 -3.5764,46.63142 12.059,20.57712 48.57,32.42659 99.9235,32.42965 50.8838,0.003 91.1651,7.49967 123.0954,22.90896 15.615,7.53566 25.8759,14.47363 36.1305,24.42983 19.1667,18.60902 28.5856,39.24232 31.3879,68.75945 3.217,33.88445 -6.781,63.87947 -29.0874,87.26535 -11.539,12.0974 -23.9851,21.10075 -40.6478,29.40389 -13.1028,6.52924 -22.306,9.9299 -31.778,11.74219 -9.0244,1.72666 -9.4382,1.72868 -16.2342,0.0794 z M 439.38268,484.10898 C 429.26041,481.50445 429.86994,482.07604 316.21252,368.60582 223.74958,276.29517 205.48665,257.6111 203.21252,253 200.76022,248.02763 200.5,246.44474 200.5,236.5 c 0,-10.1256 0.22346,-11.42428 2.81119,-16.3375 3.58361,-6.80409 10.04722,-13.2677 16.85131,-16.85131 4.86856,-2.56421 6.26,-2.81119 15.8375,-2.81119 9.61067,0 10.96584,0.24269 16,2.86533 4.41556,2.30037 24.15496,21.4753 100.11282,97.25 C 404.14987,352.5269 447.34667,395 448.1057,395 c 0.75903,0 43.90826,-42.48319 95.88718,-94.40708 77.64517,-77.56299 95.48843,-94.90239 100.00712,-97.18314 7.80326,-3.9386 20.91313,-4.57422 29.28458,-1.41985 8.05015,3.03332 16.55212,11.08059 20.31448,19.22804 2.52265,5.46283 2.90094,7.45846 2.90094,15.30342 0,16.7359 8.75709,6.83063 -117.20869,132.57652 C 455.76517,492.40841 465.15766,484.01656 450,484.61499 c -4.125,0.16285 -8.90279,-0.0648 -10.61732,-0.50601 z M 1888,294.92954 c -12.8451,-4.75335 -27.8894,-9.54327 -40.8514,-13.00654 -6.4067,-1.71181 -13.8034,-4.27569 -16.437,-5.69752 -5.9055,-3.18822 -11.6904,-9.34359 -15.399,-16.38527 C 1812.7468,254.96857 1812.5,253.5787 1812.5,244 c 0,-10.06122 0.1432,-10.76414 3.4271,-16.82093 3.822,-7.04908 9.7685,-12.81159 16.8565,-16.33476 4.1449,-2.06023 6.0494,-2.33052 15.7164,-2.23054 9.3605,0.0968 12.864,0.64167 23.5057,3.65562 15.2956,4.33203 36.44,11.92227 44.4053,15.94025 7.7448,3.90671 15.9361,11.75645 19.1739,18.37437 6.3401,12.95862 3.0136,29.44733 -8.4031,41.65268 -6.7925,7.2618 -10.9124,9.06424 -21.6818,9.48591 -8.1105,0.31757 -9.8401,0.0415 -17.5,-2.79306 z m 284.3827,-22.87202 c -9.5046,-2.28871 -20.3745,-11.45194 -24.682,-20.80676 -1.7855,-3.87751 -2.1888,-6.58888 -2.1941,-14.75076 -0.01,-8.75577 0.3256,-10.70878 2.6636,-15.6965 3.254,-6.94209 9.8468,-13.72891 16.9923,-17.49231 L 2170.5,200.5 h 192.5 192.5 l 5.2859,2.78504 c 7.5219,3.96315 12.4048,8.73582 16.315,15.94662 3.2517,5.99645 3.3991,6.72379 3.3991,16.76834 0,9.20916 -0.318,11.17615 -2.5864,16 -3.2384,6.88655 -10.5829,14.19871 -17.8426,17.76402 L 2554.5,272.5 2365,272.65409 c -104.225,0.0847 -190.9028,-0.18371 -192.6173,-0.59657 z"
         id="path223" />
      <path
         style="fill:#717171"
         d="M 226.5,634.65703 C 215.57241,631.03036 207.90877,624.37168 203.30075,614.5 l -2.80075,-6 -0.27265,-82.41617 c -0.24085,-72.80301 -0.0878,-83.05218 1.31249,-87.86886 4.83917,-16.64615 20.16668,-27.2202 37.64413,-25.96969 13.50401,0.9662 25.93956,10.0692 31.0851,22.75472 l 2.23093,5.5 v 83.5 83.5 l -2.23093,5.5 c -5.36766,13.23313 -17.8699,22.06371 -32.08374,22.6614 -4.59113,0.19305 -9.29577,-0.21132 -11.68533,-1.00437 z m 421.77666,-0.67586 c -8.00411,-2.62032 -16.99738,-10.67737 -20.98811,-18.80319 L 624.5,609.5 V 524 438.5 l 2.19411,-4.75076 c 3.08153,-6.67225 11.49618,-15.20807 18.1941,-18.45609 4.8762,-2.36461 6.85705,-2.72603 15.11179,-2.75724 8.26592,-0.0312 10.24509,0.31329 15.23579,2.65226 10.98391,5.14779 18.83826,15.51616 20.79222,27.44737 1.22931,7.50641 1.24947,153.66754 0.0224,162.15313 -1.19539,8.26629 -4.37622,14.6216 -10.27182,20.52316 -9.61165,9.62135 -24.25416,13.00627 -37.5019,8.66934 z m 281.45781,0.9894 c -9.4889,-2.38328 -19.35874,-10.41384 -23.61234,-19.2121 -4.21921,-8.7271 -4.50679,-21.95804 -0.67153,-30.8948 3.70315,-8.6289 126.599,-220.45752 129.9928,-224.06134 2.0803,-2.20899 6.3191,-5.2057 9.4195,-6.65934 4.9194,-2.30647 6.913,-2.64299 15.6581,-2.64299 9.3079,0 10.4962,0.2339 16.6974,3.28675 7.3921,3.63913 13.2071,9.47851 16.9258,16.9969 1.9774,3.99788 2.3309,6.23972 2.3204,14.71635 -0.015,12.52023 0.2489,11.92771 -23.021,51.59607 -9.7363,16.59762 -17.9115,30.97713 -18.1671,31.95447 -0.4385,1.677 1.8617,1.79851 40.8794,2.15946 40.6733,0.37627 41.4414,0.42087 47.3441,2.74873 8.3471,3.29188 17.3466,12.33939 20.4324,20.54127 3.0238,8.03722 2.6614,21.58912 -0.7665,28.66235 -3.6007,7.42994 -9.5365,13.40238 -16.9462,17.0509 l -6.675,3.28675 -63.7244,0.27836 -63.7245,0.27836 -1.8744,2.72164 c -1.0309,1.4969 -10.61495,18.21731 -21.29788,37.15646 -21.39945,37.93783 -25.16772,42.99855 -35.55986,47.75623 -6.37328,2.91778 -17.00459,3.94339 -23.62919,2.27952 z m 419.70593,0.0923 c -6.0702,-1.45307 -12.7479,-5.62867 -17.7953,-11.12742 -3.9298,-4.2813 -29.6481,-48.12572 -108.8834,-185.62395 -57.0561,-99.01028 -104.9811,-182.67208 -106.5,-185.9151 -2.4659,-5.26482 -2.7617,-7.02112 -2.7617,-16.39641 0,-9.5775 0.247,-10.96894 2.8112,-15.8375 3.7497,-7.11952 9.9966,-13.1852 17.2433,-16.74329 5.3049,-2.60467 6.971,-2.91921 15.4631,-2.91921 8.7456,0 10.0614,0.26762 16.2238,3.29979 4.3041,2.11781 7.9221,4.80429 10.1005,7.5 4.9287,6.0991 215.7365,372.33793 217.4005,377.69235 2.2257,7.16198 1.2457,19.46791 -2.0938,26.29368 -4.0604,8.29913 -12.9577,16.11155 -21.2743,18.6803 -6.611,2.04191 -14.2335,2.4613 -19.9339,1.09676 z m 1003.2829,-0.41804 c -11.2125,-3.16708 -22.3246,-14.81512 -24.7128,-25.9047 -0.811,-3.76606 -1.0415,-37.02769 -0.8195,-118.24014 l 0.309,-113 2.929,-5.78059 c 9.2914,-18.33728 32.0699,-25.60729 49.9104,-15.92946 6.6575,3.61147 14.0604,11.98984 16.6064,18.79469 2.0775,5.55264 2.0858,6.10078 1.8206,120.74666 L 2398.5,610.5 l -2.8204,5.35577 c -3.5958,6.82798 -10.2537,13.29953 -17.1579,16.67739 -6.6133,3.23559 -18.4029,4.20061 -25.7984,2.11168 z m 381.5627,-0.0956 c -9.4337,-2.94828 -17.9195,-9.99019 -22.2372,-18.45358 -1.1208,-2.19694 -2.5708,-7.10282 -3.2223,-10.90195 -2.2915,-13.36302 -4.6959,-8.55915 64.6135,-129.09626 34.3443,-59.7286 63.939,-110.62008 65.766,-113.09218 2.3403,-3.16664 5.3562,-5.53044 10.2071,-8 6.5238,-3.32125 7.4155,-3.50528 16.9861,-3.50528 8.8569,0 10.8023,0.32882 15.7973,2.67018 16.8597,7.90282 24.7425,26.73327 18.5835,44.39218 -1.3942,3.99725 -10.5489,20.7999 -21.5999,39.64465 -10.549,17.98886 -19.1801,32.91318 -19.1801,33.16517 0,0.25199 18.7875,0.62918 41.75,0.8382 41.1133,0.37425 41.8414,0.41615 47.7426,2.74746 7.2088,2.84784 15.8946,11.08853 19.5437,18.54216 2.1221,4.33449 2.449,6.39758 2.4558,15.5 0.01,9.58565 -0.2369,10.96479 -2.8033,15.8375 -3.7634,7.14545 -10.5502,13.73827 -17.4923,16.99232 l -5.6965,2.6702 -63.6206,0.27825 c -58.7467,0.25693 -63.7341,0.41015 -65.103,2 -0.8153,0.94696 -9.7123,16.34675 -19.7711,34.22175 -10.0589,17.875 -20.2178,35.23553 -22.5755,38.57896 -9.4551,13.40817 -25.7265,19.47603 -40.1438,14.97029 z m 419.6646,0.14804 c -6.3397,-1.79243 -11.0314,-4.91114 -16.671,-11.08174 -3.5024,-3.83218 -33.7755,-55.46907 -109.6001,-186.94513 -57.6187,-99.90777 -105.4491,-183.56748 -106.2899,-185.91046 -3.8855,-10.82699 -3.6115,-21.53281 0.7838,-30.62442 3.0813,-6.37347 10.7219,-13.7302 17.5908,-16.93705 4.9551,-2.31338 7.0288,-2.67786 15.2358,-2.67786 8.1744,0 10.2891,0.36853 15.1554,2.64105 3.1104,1.45257 7.3854,4.43545 9.5,6.62862 2.4437,2.53456 42.4027,70.90146 109.6612,187.62204 58.1991,100.99895 106.7968,185.76143 107.9949,188.36106 1.7246,3.74187 2.1794,6.60164 2.1834,13.7266 0,7.77241 -0.3801,9.83345 -2.8188,15.11039 -7.3198,15.83854 -26.2589,24.74253 -42.7255,20.0869 z M 1689.5,630.34352 c -20.4754,-3.22122 -52.4137,-11.76136 -70.7935,-18.92988 -14.4638,-5.6412 -21.6505,-11.55092 -26.3056,-21.63161 -2.5568,-5.53686 -2.9009,-7.40891 -2.9009,-15.78203 0,-8.9172 0.2096,-9.88665 3.4174,-15.80263 4.3516,-8.02571 12.3974,-15.45596 19.3211,-17.8429 9.8785,-3.40568 17.9207,-2.52771 36.7615,4.01327 15.3476,5.32826 31.9382,10.01696 50,14.13063 13.8767,3.1605 25.1599,11.18612 30.8116,21.91601 2.3587,4.47787 2.6794,6.22091 2.6836,14.58562 0,8.21188 -0.3573,10.27239 -2.6654,15.1965 -5.6685,12.09299 -17.3043,19.92347 -30.2751,20.37396 -3.8801,0.13476 -8.4047,0.0326 -10.0547,-0.22694 z m 145.4263,-6.61311 c -15.3794,-6.52253 -24.1294,-20.94344 -22.606,-37.25708 0.7544,-8.07867 3.6448,-14.45267 9.2915,-20.48942 6.2293,-6.65958 9.006,-8.24112 21.8637,-12.453 5.9993,-1.96521 13.859,-5.22285 17.4661,-7.23919 17.33,-9.68732 25.851,-25.9633 23.0529,-44.03347 -3.4561,-22.32025 -21.55,-36.29042 -55.9945,-43.23306 -14.5087,-2.92438 -26.7407,-3.9391 -60,-4.97739 -42.177,-1.31668 -62.9344,-4.3703 -89.5,-13.16637 -52.6103,-17.41963 -82.3232,-48.57006 -88.9595,-93.26332 -5.7722,-38.87363 4.4984,-71.79197 30.457,-97.61811 11.2053,-11.14804 23.5218,-19.74338 39.5025,-27.56745 19.5284,-9.56103 27.0055,-11.87326 38.5,-11.90572 8.9321,-0.0252 9.8747,0.17638 15.7683,3.37227 7.4997,4.0668 12.529,9.37245 16.0965,16.98089 2.2728,4.84707 2.6332,6.92659 2.6204,15.12001 -0.013,8.31029 -0.3448,10.12864 -2.6502,14.5198 -5.1176,9.74788 -14.3657,16.41793 -32.4138,23.37802 -16.5025,6.36402 -27.1988,14.8893 -32.7232,26.08115 -3.012,6.10211 -3.198,7.12004 -3.198,17.5 0,10.34431 0.1982,11.43949 3.2279,17.83608 9.0568,19.12151 33.0068,30.52801 72.7721,34.65865 5.5,0.57131 23.725,1.47891 40.5,2.01688 16.775,0.53797 35.4382,1.65108 41.4739,2.47358 70.4656,9.6027 116.6558,39.10535 131.483,83.98103 8.1237,24.58717 8.1735,54.88774 0.1286,78.27712 -11.1619,32.45132 -42.4891,60.65062 -83.5855,75.23985 -12.6181,4.47944 -24.642,5.13215 -32.5737,1.76825 z M 442,484.00802 c -11.44701,-2.02413 -6.81689,2.24034 -122.94841,-113.23889 -60.19663,-59.85851 -110.88805,-110.85855 -112.64762,-113.33342 -6.97623,-9.81221 -8.19961,-24.62945 -2.97851,-36.07487 8.91847,-19.55063 33.76674,-27.23516 51.4434,-15.9093 1.99713,1.2796 46.22878,44.67648 98.29255,96.43751 C 405.22519,353.65007 448.19237,396 448.64404,396 c 0.45167,0 43.80404,-42.90691 96.33859,-95.3487 C 652.91708,192.90744 644.15204,200.50417 660.5,200.53149 c 7.62746,0.0128 9.87474,0.42145 14.73579,2.67995 6.90139,3.20645 14.50955,10.55069 17.64208,17.03009 4.72947,9.78255 4.4725,23.48525 -0.62313,33.22831 -1.99152,3.80787 -29.25345,31.68788 -112.19276,114.73637 C 476.87151,471.53252 470.122,478.08418 464,480.86598 c -7.13246,3.24095 -15.04765,4.3714 -22,3.14204 z M 1894.5,296.55961 c -2.75,-0.76391 -11.525,-3.66183 -19.5,-6.43982 -7.975,-2.778 -20.2274,-6.59273 -27.2276,-8.47719 -14.6037,-3.93135 -19.4427,-6.44453 -26.0885,-13.54946 -9.0201,-9.64325 -11.7585,-21.90432 -7.8016,-34.93167 1.7412,-5.73227 3.212,-8.22947 7.7068,-13.08436 9.8668,-10.65737 20.6772,-13.80912 36.492,-10.63924 17.435,3.49464 45.5015,12.85292 59.2941,19.77063 14.9053,7.47575 23.3301,22.52676 20.617,36.83272 -1.3446,7.08976 -5.8067,16.3834 -10.3937,21.64783 -7.3792,8.46892 -21.2051,12.17435 -33.0985,8.87056 z m 279.6317,-24.62946 c -10.7693,-2.13558 -21.1472,-10.42119 -25.9203,-20.69436 -2.2565,-4.8569 -2.6684,-7.11756 -2.6881,-14.75344 -0.021,-8.1771 0.2796,-9.63329 3.2266,-15.62257 3.8528,-7.83002 10.1263,-13.97317 18.075,-17.69937 L 2172.5,200.5 l 188.4587,-0.2603 c 169.2441,-0.23376 189.0123,-0.0993 193.8898,1.3186 32.8537,9.55082 34.9751,55.8024 3.1515,68.71077 l -5.5,2.23093 -187,0.14819 c -102.85,0.0815 -188.9657,-0.24161 -191.3683,-0.71804 z"
         id="path221" />
      <path
         style="fill:#4e4e4e"
         d="m 229.98784,634.9993 c -6.82382,-1.15762 -13.69664,-4.80334 -18.94022,-10.04692 -5.63934,-5.63933 -8.90419,-12.18002 -10.18439,-20.403 -0.55218,-3.54674 -0.81982,-38.83599 -0.64509,-85.05555 0.33009,-87.31076 -0.0599,-82.04965 6.82397,-92.05504 9.30288,-13.52127 28.55153,-18.77226 43.77313,-11.94122 7.20904,3.23522 15.19685,11.11979 18.49065,18.25167 L 271.5,438.5 v 85.5 85.5 l -2.76217,5.62454 c -3.04269,6.19576 -10.29774,13.58997 -16.37752,16.69164 -2.15807,1.10097 -6.57963,2.49272 -9.82569,3.09279 -6.44665,1.19173 -6.07037,1.18902 -12.54678,0.0903 z m 423.74366,-0.0367 c -14.31564,-2.40809 -25.90652,-14.06656 -28.7166,-28.88407 -1.3744,-7.24719 -1.3744,-156.90993 0,-164.15712 3.70539,-19.53843 21.984,-32.367 41.16249,-28.88927 3.41763,0.61973 7.98975,2.03277 10.16027,3.14009 6.10072,3.11236 13.35332,10.49897 16.40017,16.7032 L 695.5,438.5 v 85.5 85.5 l -2.76414,5.62639 c -3.04495,6.19796 -10.29615,13.58832 -16.37555,16.68979 -2.15807,1.10097 -6.57963,2.49272 -9.82569,3.09279 -6.47096,1.19622 -6.02204,1.19434 -12.80312,0.0537 z m 277.24075,-0.30123 c -10.47942,-2.29554 -20.6981,-10.57094 -25.24194,-20.4417 -2.97617,-6.46527 -3.06604,-22.63578 -0.16027,-28.84134 4.18604,-8.93972 126.13646,-219.78637 129.22196,-223.41884 1.8832,-2.21709 6.1253,-5.27036 9.913,-7.13506 5.9845,-2.94616 7.4947,-3.26161 15.708,-3.28109 7.8728,-0.0187 9.8887,0.35141 15.087,2.7698 18.3007,8.51395 25.8354,27.67453 18.2589,46.43197 -1.3544,3.35325 -10.6838,20.10952 -20.7319,37.23617 -10.0481,17.12664 -18.3273,31.8997 -18.3982,32.82902 -0.1185,1.55453 3.2704,1.72966 42.3712,2.18967 l 42.5,0.5 5.7203,2.6811 c 7.0856,3.32096 14.2855,10.572 17.6933,17.8189 2.2388,4.76088 2.5768,6.77666 2.5147,15 -0.056,7.48087 -0.5308,10.51823 -2.2319,14.29076 -3.1857,7.06494 -11.1175,14.93702 -18.474,18.33507 l -6.2224,2.8742 -63.7124,0.29159 -63.7123,0.29158 -15.67963,27.70842 c -23.71398,41.90649 -26.33861,46.23309 -31.19688,51.42698 -8.39779,8.97791 -21.34197,13.04616 -33.22654,10.44283 z m 420.15945,0.28063 c -2.4025,-0.48297 -6.3973,-1.86038 -8.8773,-3.06093 -10.0625,-4.87118 -11.6725,-7.34167 -64.2131,-98.53603 -27.2023,-47.21479 -74.3364,-129.01006 -104.7426,-181.76727 -30.4061,-52.75722 -56.2781,-98.43222 -57.4933,-101.5 -1.6478,-4.15994 -2.2217,-7.74383 -2.2574,-14.09883 -0.043,-7.66095 0.2831,-9.19364 3.2326,-15.18482 4.0374,-8.20117 11.1298,-14.85759 19.0178,-17.84871 7.5634,-2.86806 18.6988,-3.03044 26.2247,-0.3824 11.7708,4.14164 6.2801,-4.6985 122.7027,197.55113 85.4523,148.44781 106.5459,185.78504 107.8626,190.92443 4.476,17.47163 -5.5378,36.47087 -22.3274,42.36202 -5.3307,1.87044 -14.0124,2.57 -19.1293,1.54141 z m 1005.7389,0.0401 c -11.3052,-1.90929 -20.8567,-9.14618 -26.0839,-19.76315 l -3.2867,-6.67572 -0.2711,-111.91508 c -0.3009,-124.23754 -0.5439,-119.2299 6.2668,-129.12819 4.0218,-5.84515 8.7265,-9.78992 15.2925,-12.8224 3.7918,-1.7512 6.5668,-2.17625 14.2118,-2.17685 8.2068,-6.5e-4 10.2754,0.36273 15.1965,2.66943 7.2668,3.40624 14.2271,10.36654 17.6333,17.63332 l 2.6702,5.6965 v 115.0209 115.0209 l -3.2806,6.66392 c -7.135,14.49366 -22.5521,22.44423 -38.3488,19.77642 z M 2737,634.6095 c -3.025,-0.67258 -7.3436,-2.18385 -9.5968,-3.35836 -5.9308,-3.09144 -13.8806,-12.23832 -16.3326,-18.79199 -2.4384,-6.51732 -2.7486,-16.88835 -0.7079,-23.66907 1.8927,-6.28917 126.2276,-222.33164 130.8739,-227.40465 2.1865,-2.3873 6.3911,-5.30506 10.0159,-6.95047 5.3664,-2.43595 7.5263,-2.83968 15.3147,-2.8627 8.2244,-0.0243 9.6765,0.27316 15.6226,3.2004 7.796,3.83796 13.9555,10.14798 17.6216,18.05219 2.167,4.67213 2.6258,7.08906 2.5956,13.67515 -0.049,10.77944 -1.2685,13.4354 -23.8171,51.88664 -10.2845,17.53765 -18.4636,32.50015 -18.1758,33.25 0.4296,1.11956 7.8158,1.3692 41.3045,1.39601 45.4557,0.0364 46.6627,0.18807 55.5044,6.97567 22.1279,16.98709 18.3748,49.9136 -7.0479,61.83127 L 2944.5,544.5 l -63.9627,0.5 -63.9627,0.5 -20.5373,36.29113 c -11.2955,19.96012 -22.4672,38.51386 -24.826,41.23053 -5.3686,6.18315 -11.8509,10.03063 -19.6572,11.66734 -7.1574,1.50064 -7.4546,1.49901 -14.5541,-0.0795 z m 420.1317,0.33253 c -6.9391,-1.39492 -13.2383,-4.9275 -18.6317,-10.4487 -4.012,-4.10701 -25.784,-41.1698 -110.1772,-187.5559 C 2960.641,319.53838 2922.3693,252.18277 2920.9679,248 c -2.9742,-8.87729 -2.4411,-19.46864 1.3724,-27.26321 2.988,-6.10716 10.2664,-13.47519 16.4049,-16.6068 12.7614,-6.51037 31.662,-3.7252 40.9256,6.03072 2.6153,2.75433 208.4057,358.2765 215.8507,372.90229 11.5781,22.74544 -3.1635,49.7351 -28.5215,52.2185 -3.025,0.29625 -7.4657,0.14349 -9.8683,-0.33947 z M 1684.5,628.90674 c -15.8846,-2.78955 -41.331,-9.23841 -55.0944,-13.96256 -24.2087,-8.30933 -30.5955,-12.7946 -36.7674,-25.8208 -2.7094,-5.71832 -3.1382,-7.72363 -3.1382,-14.67524 0,-7.29938 0.3531,-8.76624 3.7779,-15.69599 6.3945,-12.93838 15.3092,-18.79078 29.7221,-19.51225 7.9709,-0.399 9.2158,-0.16886 20,3.69736 16.0095,5.73954 32.9428,10.7048 48.3704,14.18339 19.5432,4.40658 28.7646,9.40139 35.5415,19.25136 13.5786,19.73576 2.1807,47.63143 -21.7645,53.26749 -6.976,1.64199 -7.1625,1.63537 -20.6474,-0.73276 z m 154.4293,-4.21677 c -15.6765,-4.42352 -26.0453,-17.96223 -26.1896,-34.19629 -0.077,-8.68279 2.0874,-15.44444 7.0141,-21.9101 5.1693,-6.7841 11.7832,-11.02113 22.0346,-14.11592 18.0956,-5.46294 31.5733,-14.4033 37.8443,-25.10382 5.2762,-9.00328 6.6932,-20.85186 3.8153,-31.90374 -5.7833,-22.20936 -27.9694,-35.53811 -68.3116,-41.03955 -5.85,-0.79776 -24.3614,-1.87103 -41.1364,-2.38506 -16.775,-0.51402 -35,-1.42889 -40.5,-2.03305 -63.2125,-6.94362 -109.476,-30.34057 -130.5087,-66.00244 -13.9385,-23.63337 -18.3997,-58.71893 -11.0844,-87.17543 4.8382,-18.82074 13.2735,-33.12506 28.5329,-48.38553 11.7462,-11.74704 24.8952,-20.85654 41.5722,-28.80081 24.607,-11.72184 37.3139,-13.83895 49.5984,-8.26362 19.8102,8.99091 27.2577,33.87577 15.3275,51.21558 -5.1095,7.42645 -11.5113,11.54307 -28.6927,18.45068 -23.0788,9.27862 -33.939,20.14194 -37.4089,37.41994 -1.6084,8.00901 0.1516,18.86034 4.3308,26.70132 7.7726,14.58289 26.6836,25.57869 52.1507,30.32309 15.466,2.88124 23.2578,3.52211 54.6822,4.49753 44.9854,1.39635 67.6596,4.63111 94.5977,13.49553 47.1757,15.52392 76.738,43.2346 86.3918,80.98085 4.3627,17.05782 5.0114,39.89813 1.5946,56.14125 -7.8727,37.42531 -34.5337,66.70225 -77.4259,85.02259 -17.1304,7.31686 -29.3428,9.57443 -38.2289,7.067 z M 436.33245,482.20701 c -2.84215,-1.01412 -6.89215,-3.15465 -9,-4.75674 C 425.2246,475.84819 374.78741,425.97364 315.24979,366.61794 198.6894,250.4137 203.03901,255.14172 200.98985,242.4176 c -4.63545,-28.78353 24.47427,-50.70333 50.87461,-38.3089 3.57122,1.67662 26.45141,23.95552 99.65265,97.0338 52.25941,52.17162 95.67895,94.8575 96.48786,94.8575 0.80891,0 44.22621,-42.68254 96.48289,-94.8501 101.69182,-101.51839 98.04518,-98.20223 110.15637,-100.17337 6.538,-1.06409 16.07344,0.32863 21.61857,3.15754 6.17244,3.14895 13.41163,10.50711 16.46887,16.73954 2.42463,4.94282 2.76046,6.78314 2.76414,15.14742 0.008,17.31843 9.07555,7.01696 -116.70448,132.58021 -90.31209,90.15644 -111.19708,110.5208 -115.29133,112.41731 -6.92417,3.20736 -19.91651,3.77572 -27.16755,1.18846 z M 1880.5,291.41591 c -8.8,-3.05104 -22.4727,-7.33932 -30.3837,-9.52952 -16.9929,-4.70453 -20.843,-6.5162 -27.0478,-12.72748 -20.4152,-20.43654 -9.6525,-54.73806 18.8724,-60.14771 4.0971,-0.77699 7.4537,-0.65725 14.1514,0.50481 15.9764,2.77196 42.8737,11.51459 58.5137,19.01915 10.9932,5.27489 18.0376,12.25221 21.422,21.21818 4.4141,11.6938 0.6749,27.08081 -9.1925,37.82779 -6.2673,6.82596 -12.393,9.40142 -22.3355,9.39073 -7.1036,-0.008 -9.7927,-0.63016 -24,-5.55595 z m 289.8242,-20.85013 c -5.83,-1.83029 -10.4065,-4.8465 -15.1319,-9.97298 -5.3634,-5.81857 -8.114,-11.43047 -9.0106,-18.38339 -2.2063,-17.11076 5.4167,-31.33279 20.667,-38.55816 L 2173.5,200.5 h 189 c 178.4625,0 189.2788,0.099 194,1.77483 9.9735,3.54023 18.4269,11.91632 22.167,21.96419 0.9527,2.55942 1.5952,7.47255 1.6089,12.30326 0.019,6.6687 -0.451,9.09782 -2.7508,14.22237 -3.2587,7.26137 -11.1192,15.2367 -18.2743,18.54124 L 2554.5,271.5 l -190,0.18838 c -154.3314,0.15301 -190.7839,-0.0577 -194.1758,-1.1226 z"
         id="path219" />
      <path
         style="fill:#2e2e2e"
         d="M 227.5,634.06961 C 218.44041,631.87819 208.41193,623.54067 203.96139,614.5 L 201.5,609.5 V 524 438.5 l 2.37425,-4.78004 c 3.50917,-7.06498 10.16776,-13.91378 16.78067,-17.26006 5.25446,-2.65886 6.80501,-2.95784 15.34508,-2.95881 8.20724,-9.4e-4 10.27518,0.36227 15.1965,2.66909 6.47132,3.03338 13.73909,9.80816 16.61139,15.48461 4.02505,7.95458 4.19211,11.64815 4.19211,92.68433 0,87.2449 0.1205,85.54473 -6.77464,95.58611 -8.07147,11.75445 -23.57502,17.5672 -37.72536,14.14438 z m 423.94039,0.0512 c -9.59698,-2.47892 -19.571,-10.83368 -23.76112,-19.90355 L 625.5,609.5 V 524 438.5 l 2.17927,-4.71723 c 3.0555,-6.61389 10.56313,-14.26316 17.19619,-17.5206 C 649.81889,413.83449 651.65041,413.5 660,413.5 c 8.21539,0 10.27351,0.36254 15.22034,2.6811 10.26364,4.81052 17.6099,14.37782 19.76476,25.74034 C 695.61632,445.24982 696,476.27971 696,524 c 0,47.72029 -0.38368,78.75018 -1.0149,82.07856 -3.15487,16.63556 -16.20332,27.93858 -32.96531,28.55568 -4.13588,0.15227 -8.89662,-0.0788 -10.5794,-0.51346 z M 928.5,633.66035 c -6.46485,-2.1402 -9.9977,-4.31595 -14.79086,-9.1091 -9.46161,-9.46162 -12.58625,-22.94264 -8.47186,-36.55125 1.93028,-6.38453 126.63732,-222.16524 131.01302,-226.69189 6.5251,-6.75028 12.2873,-8.8001 24.7497,-8.80445 9.5893,-0.003 10.9645,0.24097 15.8558,2.81678 11.8315,6.23069 18.3006,16.20248 18.9372,29.19051 0.6272,12.79878 0.758,12.51162 -28.1959,61.93105 -8.0372,13.7181 -14.272,25.27695 -13.8551,25.68633 0.4169,0.40938 19.433,0.89689 42.258,1.08335 41.0157,0.33506 41.5699,0.36688 47.4926,2.7263 8.2631,3.29176 16.4017,11.49071 19.4237,19.56791 2.7064,7.23352 3.0034,18.76816 0.6527,25.35115 -3.0647,8.58261 -9.1726,15.23598 -18.5997,20.26075 L 1140.5,543.5 l -64.2206,0.27818 -64.2206,0.27819 -2.3717,3.22181 c -1.3044,1.772 -11.08841,18.66393 -21.74215,37.53762 -21.19488,37.54789 -24.76736,42.38228 -34.6692,46.9155 -6.82933,3.12656 -18.43006,4.02981 -24.77575,1.92905 z m 418.5054,-0.26249 c -6.1283,-2.23387 -12.1815,-6.55586 -16.4109,-11.71728 C 1326.8242,617.07944 1122.8108,263.95235 1117.5953,253 c -2.8512,-5.98734 -3.0953,-7.32815 -3.0953,-17 0,-9.42927 0.2703,-11.01189 2.6502,-15.5198 3.3077,-6.26512 11.4284,-13.96238 17.6326,-16.71312 13.2313,-5.86633 32.7046,-1.73727 40.5244,8.59265 4.7748,6.30749 215.0789,372.27663 216.4362,376.64027 1.9701,6.33322 1.2092,19.15635 -1.4963,25.21723 -2.9579,6.6264 -10.4504,14.26064 -17.0688,17.39165 -7.2163,3.41383 -19.4259,4.24839 -26.1729,1.78898 z m 1005.3188,0.22096 c -9.5971,-3.13485 -18.7883,-11.89788 -22.2869,-21.24867 -2.0553,-5.49335 -2.0683,-6.35712 -1.8038,-120.20163 L 2328.5,377.5 l 2.2968,-4.66235 c 11.3887,-23.11867 41.6953,-27.54325 58.7478,-8.57683 2.3913,2.65976 5.2795,7.32574 6.418,10.36885 2.0554,5.49356 2.0683,6.35262 1.8038,120.70163 L 2397.5,610.5 l -2.6502,5.0198 c -3.302,6.25437 -11.4171,13.95285 -17.6326,16.72735 -5.9106,2.63843 -18.8347,3.35058 -24.893,1.37167 z m 381.9618,-0.0104 c -10.2301,-3.34081 -18.076,-10.3582 -22.3277,-19.96984 -2.7192,-6.14714 -3.4971,-16.65212 -1.7188,-23.21073 0.8606,-3.1739 24.6957,-45.65119 63.6878,-113.5 34.2719,-59.63532 63.4536,-110.00285 64.8482,-111.92785 3.2781,-4.52474 5.6034,-6.4641 11.7245,-9.77856 4.5283,-2.45198 5.9906,-2.70807 15.5,-2.71442 9.2304,-0.006 11.1651,0.30668 16,2.58731 6.7007,3.16067 13.2945,9.59813 16.7574,16.36003 3.9103,7.63533 4.2853,18.81829 0.9285,27.68596 -1.3826,3.65218 -11.1505,21.35658 -21.7067,39.34311 -10.5737,18.01646 -18.8082,33.08147 -18.3361,33.54601 0.4713,0.46377 19.5319,0.99578 42.3569,1.18224 40.6422,0.33201 41.6198,0.38685 47.2968,2.65303 7.0637,2.81976 15.3034,10.56576 18.7591,17.63529 2.1195,4.33594 2.4441,6.39452 2.4441,15.5 0,9.442 -0.2684,11.00841 -2.6633,15.54564 -3.6016,6.82335 -10.1892,13.22445 -16.8367,16.36003 l -5.5,2.59433 -64.287,0.5 c -55.6754,0.43302 -64.4164,0.70093 -65.2529,2 -0.5312,0.825 -9.8521,17.21783 -20.713,36.42851 -21.6279,38.25521 -26.1181,44.40424 -35.9309,49.20519 -6.6687,3.26274 -18.2808,4.17885 -25.0302,1.97472 z m 419.0382,0.0171 c -9.511,-3.12204 -15.9388,-9.18619 -23.9823,-22.62555 -22.627,-37.80599 -206.0263,-357.48726 -207.6029,-361.87033 -2.5114,-6.98207 -2.6823,-18.71821 -0.3637,-24.98671 2.3336,-6.3094 7.9827,-13.52927 13.3862,-17.10838 13.7245,-9.09075 33.3878,-7.62873 44.0268,3.27353 2.8125,2.88205 36.9634,61.21761 109.2935,186.69189 57.8615,100.375 106.3762,184.975 107.8105,188 2.2574,4.76118 2.6014,6.77615 2.5605,15 -0.039,7.93415 -0.4451,10.32413 -2.4614,14.5 -3.1181,6.4579 -11.1436,14.44751 -17.4914,17.41323 -6.2244,2.90806 -18.9056,3.77057 -25.1758,1.71232 z M 1677.5,627.08044 c -27.8533,-5.74629 -51.7285,-12.84008 -65.9854,-19.60555 -8.1551,-3.86993 -13.8682,-9.40521 -18.2013,-17.63468 -2.5387,-4.82154 -2.8118,-6.31147 -2.8125,-15.34021 -8e-4,-9.49002 0.1738,-10.32193 3.4219,-16.31259 4.8436,-8.93319 11.5711,-14.67236 20.3111,-17.32706 9.2815,-2.81916 15.958,-2.13728 30.6699,3.13233 15.4638,5.53893 31.9579,10.3497 47.8195,13.9473 15.1297,3.43159 21.4594,6.2897 28.5558,12.89415 13.9405,12.97392 14.5657,33.99095 1.4245,47.88581 -10.7736,11.39155 -21.1811,13.31645 -45.2035,8.3605 z m 160.5,-3.01557 c -8.735,-2.66668 -18.3229,-11.19255 -22.32,-19.84764 -1.7541,-3.79825 -2.1785,-6.56795 -2.1785,-14.21723 0,-11.15814 1.8105,-16.12859 8.5307,-23.41905 5.728,-6.21425 9.036,-8.07438 21.6026,-12.14747 25.329,-8.20966 38.7112,-21.00776 41.2333,-39.43348 1.9919,-14.55196 -2.5637,-27.79945 -12.8275,-37.30193 -7.7608,-7.18511 -14.3728,-10.86715 -27.0985,-15.09043 -18.6251,-6.18111 -47.7387,-9.53553 -83.2205,-9.58855 -36.567,-0.0546 -76.46,-8.27999 -104.4347,-21.53285 -16.7991,-7.95845 -27.3809,-15.28503 -38.7869,-26.85498 -16.9238,-17.16706 -25.1365,-34.51477 -28.5996,-60.41117 -1.5581,-11.65081 -0.575,-33.36103 1.9797,-43.72009 6.1786,-25.05384 22.2387,-47.61548 45.9057,-64.48966 10.4074,-7.42029 31.0634,-17.74655 44.1992,-22.09592 8.2976,-2.74741 10.4883,-3.08518 17.5,-2.69819 13.037,0.71953 23.1645,7.31872 29.158,18.99962 2.1505,4.19118 2.8021,7.06641 3.1501,13.90075 0.3958,7.77252 0.1698,9.21589 -2.3067,14.73431 -4.6955,10.46307 -13.0101,16.69848 -32.0652,24.04691 -16.5816,6.39454 -28.0574,15.6105 -33.7218,27.08115 -3.0165,6.10858 -3.1994,7.112 -3.1994,17.55187 0,10.78457 0.098,11.27094 3.7592,18.67907 9.5858,19.39557 33.3508,30.59198 73.7408,34.74157 5.775,0.59331 24.225,1.50945 41,2.03586 51.738,1.62358 81.414,7.74233 112.5,23.19583 37.8506,18.81632 58.1633,45.54791 63.5735,83.66291 1.9016,13.3966 0.6896,37.55222 -2.4512,48.85356 -5.3384,19.20883 -14.0636,33.61799 -29.2698,48.33748 -14.4041,13.94302 -33.1205,25.51769 -53.8525,33.30369 -11.4899,4.31507 -24.5187,5.85539 -31.5,3.72406 z M 441.2697,482.99608 c -11.30773,-2.3658 -7.69722,0.98956 -124.05386,-115.28742 -88.4207,-88.36016 -110.78212,-111.22052 -112.79595,-115.31272 -3.45969,-7.03025 -4.27069,-17.35913 -2.0144,-25.65548 4.39558,-16.16249 19.86862,-26.8849 36.81171,-25.50954 12.51259,1.01572 8.10822,-2.92218 112.10048,100.22763 52.69973,52.2728 96.29281,95.20998 96.87353,95.41596 0.58071,0.20598 43.63775,-42.14299 95.68231,-94.10881 52.04457,-51.96582 95.98642,-95.40447 97.64857,-96.53032 5.09554,-3.45144 14.04928,-5.53478 21.49706,-5.0019 20.76254,1.48556 35.64526,20.55853 31.94868,40.94391 -0.61973,3.41763 -2.03368,8.03833 -3.14211,10.26824 -1.3313,2.67825 -39.55465,41.62795 -112.61517,114.75516 -97.81297,97.90224 -111.24212,110.98766 -116.1552,113.18204 -6.29939,2.81357 -15.53379,3.92127 -21.78565,2.61325 z M 1895.5,296.04557 c -1.65,-0.41234 -8.625,-2.80299 -15.5,-5.31256 -6.875,-2.50957 -19.475,-6.45993 -28,-8.77858 -8.525,-2.31865 -17.2514,-5.09869 -19.392,-6.17786 -5.9912,-3.02042 -12.9491,-10.11453 -16.1822,-16.49901 -2.6346,-5.20257 -2.9225,-6.723 -2.8928,-15.27756 0.029,-8.44223 0.3551,-10.1433 2.9258,-15.27756 3.4279,-6.84655 10.7833,-14.05729 17.2628,-16.92347 10.6325,-4.70328 25.1549,-2.8772 54.2784,6.82508 30.2395,10.07405 40.4599,16.44093 46.6274,29.04677 8.3418,17.05017 -3.3732,43.27445 -21.5929,48.3361 -4.0442,1.12353 -13.1133,1.14352 -17.5345,0.0387 z M 2172,270.41469 c -21.3367,-5.63944 -32.024,-29.70466 -22.1232,-49.81601 3.6797,-7.47446 9.1702,-12.79069 17.0032,-16.46351 L 2172.5,201.5 h 191 191 l 5.6557,2.86611 c 6.9943,3.54439 12.8374,9.42491 16.5284,16.63389 2.5043,4.8914 2.8159,6.55122 2.8159,15 0,8.20588 -0.3637,10.276 -2.6702,15.1965 -4.8022,10.24497 -13.7152,17.36702 -24.629,19.68029 -3.8176,0.80916 -56.9419,1.10481 -190,1.0574 C 2203.9752,271.87781 2176.7116,271.66 2172,270.41469 Z"
         id="path217" />
      <path
         style="fill:#000000"
         d="m 223.01093,631.84642 c -7.62884,-3.00835 -15.9886,-11.49806 -18.8483,-19.14131 C 202.00965,606.95076 202,606.55511 202,524 c 0,-82.55511 0.01,-82.95076 2.16263,-88.70511 2.98556,-7.97964 11.2226,-16.16705 19.34474,-19.22819 8.10379,-3.05423 20.6121,-2.63955 27.98088,0.92761 6.62224,3.20578 13.07753,9.84579 16.34157,16.80919 L 270.5,439.5 v 84.5 84.5 l -2.6811,5.72034 c -3.18876,6.80349 -9.90584,13.64085 -16.52719,16.82314 -7.05592,3.39115 -20.73267,3.77945 -28.28078,0.80294 z m 424,0 c -7.65696,-3.01944 -15.98769,-11.49564 -18.87012,-19.19963 l -2.18446,-5.83847 0.27183,-84.65416 L 626.5,437.5 l 2.96246,-5.34835 c 3.88791,-7.01914 11.25213,-13.52304 18.33591,-16.19382 7.64602,-2.88277 20.36026,-2.41477 27.51047,1.01265 6.41882,3.07683 13.44378,10.27828 16.60986,17.02717 L 694.5,439.5 v 84.5 84.5 l -2.59718,5.5 c -3.26404,6.9122 -9.29192,13.13845 -16.11847,16.64889 -7.42614,3.81877 -20.72287,4.37218 -28.77342,1.19753 z M 929,633.06487 c -13.09224,-3.99691 -23.21334,-16.16411 -24.61032,-29.5856 -1.28999,-12.39364 -3.24145,-8.57313 65.15472,-127.55777 69.2601,-120.48757 67.5129,-117.78692 78.5822,-121.46353 6.5114,-2.16275 18.8282,-2.20041 24.6721,-0.0754 11.3749,4.13619 20.1196,14.58094 22.2667,26.59568 1.0959,6.1322 1.0401,7.82172 -0.4335,13.12211 -2.2632,8.14017 -4.0615,11.55318 -24.2658,46.05421 -9.5514,16.30999 -17.3661,30.57511 -17.3661,31.70027 0,2.02442 0.4456,2.04885 42.7737,2.34547 l 42.7737,0.29973 6.6187,3.25968 c 7.7162,3.80024 13.01,9.23464 16.6771,17.12031 2.1722,4.67114 2.6135,7.05514 2.6135,14.12001 0,7.10193 -0.4374,9.44087 -2.6594,14.22034 -5.0044,10.76414 -14.9838,18.09112 -27.0086,19.83004 -3.4588,0.50017 -32.8876,0.91845 -65.3974,0.92951 L 1010.2827,544 990.04078,579.75 c -11.13303,19.6625 -21.84744,37.86566 -23.80981,40.45147 -4.41899,5.82292 -10.96542,10.61339 -16.97555,12.42217 -4.86546,1.46429 -16.1025,1.70907 -20.25542,0.44123 z m 416.4243,-1.12183 c -5.9698,-2.29677 -12.3137,-7.46416 -16.3065,-13.28257 C 1322.5821,609.13665 1118.5203,254.04076 1116.6862,249 c -2.6074,-7.16608 -2.7487,-17.74459 -0.3308,-24.76154 2.2786,-6.61268 10.1546,-15.41197 17.0528,-19.05179 4.5896,-2.42169 6.1274,-2.68667 15.5918,-2.68667 12.3095,0 17.3962,1.78682 23.6563,8.30968 4.1837,4.35927 215.5699,370.29661 218.0934,377.5482 0.9862,2.83406 1.3189,6.98426 1.0535,13.14212 -0.3286,7.62353 -0.8345,9.81798 -3.308,14.34835 -3.786,6.93425 -11.1773,13.51485 -18.0811,16.0979 -7.1962,2.69246 -17.9867,2.69108 -24.9898,-0.003 z m 1004.8327,-0.005 c -7.5097,-2.96885 -15.3108,-10.47818 -18.8518,-18.14672 L 2328.5,607.5 2328.2078,498 c -0.2032,-76.17389 0.042,-111.4471 0.805,-115.8976 2.0203,-11.78048 8.1928,-20.10912 18.7581,-25.3104 5.9799,-2.94385 7.5904,-3.292 15.2291,-3.292 7.6215,0 9.2556,0.35127 15.1634,3.25968 7.7061,3.7937 12.9947,9.21491 16.7014,17.12031 L 2397.5,379.5 V 493 c 0,129.3901 0.6834,119.26155 -8.7424,129.57487 -7.4039,8.10098 -13.1081,10.71442 -24.2576,11.11376 -7.2833,0.26086 -10.0001,-0.073 -14.243,-1.75043 z m 382.743,0.5485 c -17.2559,-5.70876 -27.2732,-26.49507 -21.1981,-43.98654 0.9551,-2.75 29.7925,-53.825 64.083,-113.5 46.2542,-80.4951 63.536,-109.72914 66.9551,-113.26207 6.1677,-6.37312 12.9486,-8.91559 23.8121,-8.92835 10.9959,-0.0129 18.2619,3.17 25.7841,11.29488 6.4106,6.92414 8.9538,13.47065 8.8946,22.89554 -0.058,9.25506 -2.8719,15.21974 -24.7097,52.38075 -10.3041,17.53441 -18.5069,32.47444 -18.2285,33.20008 0.4058,1.05745 9.002,1.37887 43.3069,1.61925 L 2944.5,474.5 l 5.6965,2.67018 c 27.2861,12.79013 27.0381,50.75175 -0.4145,63.42888 l -6.282,2.90094 -63.8444,0.5 -63.8445,0.5 -20.3481,36 c -21.8832,38.71592 -26.7726,45.5708 -35.8139,50.21144 -6.408,3.28902 -19.4476,4.15758 -26.6491,1.7751 z m 420.3647,0.4244 c -4.6839,-1.35751 -12.2403,-6.83131 -16.4426,-11.91094 -4.5014,-5.44117 -210.2705,-361.97572 -213.8291,-370.5 -3.6127,-8.65394 -3.6017,-20.75341 0.026,-28.5 3.2344,-6.90695 9.2643,-13.13901 16.0968,-16.63645 6.9596,-3.56245 18.7468,-4.38853 27.2689,-1.91107 11.7558,3.41748 6.0411,-5.73993 122.3436,196.04752 58.0108,100.65 106.2915,185.25 107.2904,188 2.58,7.10261 2.4597,17.87947 -0.2811,25.20511 -2.954,7.89514 -11.2372,16.17831 -19.1323,19.13226 -6.169,2.30812 -17.3122,2.82067 -23.3404,1.07357 z M 1676,626.06161 c -39.1028,-8.33355 -67.276,-18.3332 -75.1704,-26.68057 -4.7948,-5.06995 -8.4145,-12.0647 -9.869,-19.07105 -2.9703,-14.30759 6.0998,-31.45871 19.8637,-37.56129 2.6629,-1.18067 7.689,-2.26793 11.6757,-2.52571 6.5456,-0.42325 8.2983,-0.0213 27,6.19169 11,3.65438 26.525,8.20771 34.5,10.1185 26.6219,6.37856 30.8353,8.22496 39.0126,17.09628 6.0959,6.61331 8.3289,12.33471 8.3436,21.37829 0.015,9.17122 -3.2409,17.20418 -9.6569,23.82644 -10.1903,10.51774 -21.7111,12.33976 -45.6993,7.22742 z m 165.1107,-2.14281 c -9.5212,-1.86999 -19.1378,-9.28978 -23.872,-18.4188 -3.6986,-7.13197 -4.3026,-19.68751 -1.3266,-27.57935 4.1925,-11.11816 12.6269,-18.14307 27.0313,-22.51412 C 1871.3652,546.78181 1886,530.83848 1886,508.5 c 0,-26.48478 -20.1203,-43.92355 -59.2918,-51.38965 -13.4434,-2.5623 -31.0901,-3.92299 -59.2082,-4.56537 -58.2538,-1.33086 -97.8725,-11.51189 -131,-33.66374 -31.2771,-20.91451 -46.4946,-50.70271 -46.4986,-91.02077 0,-31.22243 8.6302,-53.15786 29.4204,-74.75042 14.1531,-14.69926 31.0915,-25.87407 52.4731,-34.61811 19.7416,-8.07336 29.4703,-8.88221 40.8096,-3.39292 13.0577,6.32112 21.1273,22.53728 18.2641,36.70249 -2.7869,13.78762 -11.5703,21.9452 -31.9686,29.69075 -13.1201,4.98192 -21.6084,10.26522 -28.739,17.88791 -6.9807,7.46237 -10.1165,14.50378 -10.9635,24.61859 -1.9406,23.17419 12.7499,41.1246 41.2025,50.34554 17.8747,5.79284 31.5645,7.51768 68.8847,8.67912 46.4085,1.44426 69.531,4.6747 96.1445,13.4323 51.1696,16.83818 80.3589,46.0415 87.9308,87.97321 5.8278,32.27271 0.1465,61.95477 -16.4549,85.96961 -6.3779,9.226 -21.0517,23.54867 -31.0051,30.26328 -16.4002,11.06364 -37.3535,20.49629 -50.8955,22.91191 -8.5602,1.52697 -8.0412,1.51417 -13.9938,0.34507 z M 437.29984,481.20395 c -2.86009,-1.02458 -6.91009,-3.05379 -9,-4.50935 -2.08991,-1.45557 -52.91318,-51.81981 -112.9406,-111.92054 -104.47451,-104.60212 -109.23094,-109.5215 -111.25,-115.06157 -2.8772,-7.8947 -2.85548,-18.64297 0.0534,-26.4176 2.95395,-7.89514 11.23712,-16.17831 19.13226,-19.13226 7.75215,-2.90046 17.64819,-2.90415 25.38489,-0.009 5.43773,2.03451 11.05842,7.41992 102.01157,97.74135 52.94121,52.57351 96.76714,95.75833 97.39094,95.96626 0.62381,0.20794 44.39798,-42.82379 97.27595,-95.62605 92.85446,-92.72153 96.34691,-96.07973 102.14176,-98.21534 4.94153,-1.82114 7.4995,-2.13735 14.5,-1.79245 10.03623,0.49445 16.09635,3.11807 22.95132,9.93637 11.06037,11.00122 13.05272,29.60191 4.57424,42.70557 -1.2922,1.99713 -51.77658,53.00153 -112.18751,113.34312 -91.13954,91.03492 -110.66843,110.07651 -114.71583,111.85331 -6.95708,3.05416 -18.52349,3.57426 -25.32238,1.13866 z M 1883,290.99431 c -7.975,-2.8014 -21.7,-7.13524 -30.5,-9.63075 -8.8,-2.49552 -18.1818,-5.71882 -20.8483,-7.16289 -19.9629,-10.81073 -23.8577,-38.15463 -7.7317,-54.28067 7.8425,-7.84249 14.5384,-10.31062 26.08,-9.61317 17.3443,1.04811 61.0143,15.34651 71.9368,23.55351 14.9338,11.221 18.6591,25.92965 10.7731,42.53533 -6.3921,13.45991 -13.9363,18.82978 -27.2099,19.36782 -7.4667,0.30266 -8.9665,-0.0152 -22.5,-4.76918 z m 287.2998,-21.85106 c -9.5154,-3.2977 -15.1923,-8.34523 -20.4055,-18.14325 -2.0661,-3.88317 -2.3943,-5.87072 -2.3943,-14.5 0,-8.17498 0.3991,-10.86407 2.1869,-14.73456 2.8036,-6.06955 11.009,-14.27492 17.0785,-17.0785 L 2171.5,202.5 l 190.1854,-0.26015 190.1853,-0.26016 5.8073,2.17278 c 8.008,2.9962 16.1892,11.21972 19.2553,19.3549 3.0542,8.10379 2.6396,20.6121 -0.9276,27.98088 -3.2058,6.62224 -9.8458,13.07753 -16.8092,16.34157 L 2553.5,270.5 l -189,0.22272 c -179.8221,0.2119 -189.2525,0.1352 -194.2002,-1.57947 z"
         id="path215" />
    </g>
  </g>
</svg>
